<?xml version="1.0" standalone="no"?>
<!DOCTYPE svg PUBLIC "-//W3C//DTD SVG 20010904//EN"
 "http://www.w3.org/TR/2001/REC-SVG-20010904/DTD/svg10.dtd">
<svg version="1.0" xmlns="http://www.w3.org/2000/svg"
 width="240.000000pt" height="240.000000pt" viewBox="0 0 240.000000 240.000000"
 preserveAspectRatio="xMidYMid meet">
<metadata>
Created by potrace 1.11, written by Peter Selinger 2001-2013
</metadata>
<g transform="translate(0.000000,240.000000) scale(0.100000,-0.100000)"
fill="#000000" stroke="none">
<path d="M1158 1820 c-25 -25 -29 -36 -26 -72 2 -41 1 -43 -27 -44 -94 -5
-215 -36 -257 -66 -27 -19 -36 -50 -20 -75 5 -8 110 -11 395 -11 379 0 387 0
398 20 22 42 -17 76 -121 107 -35 11 -126 24 -167 25 -18 0 -21 4 -16 28 12
60 -38 118 -102 118 -16 0 -38 -12 -57 -30z"/>
<path d="M277 1559 c-27 -4 -51 -10 -54 -13 -3 -3 13 -26 36 -52 56 -64 76
-113 117 -283 19 -79 45 -165 57 -190 29 -56 92 -107 147 -116 34 -6 44 -13
60 -45 30 -58 124 -154 193 -198 128 -79 255 -113 412 -108 55 2 111 6 125 10
14 3 39 8 55 12 17 3 72 27 124 52 73 35 109 61 166 117 59 58 83 75 122 84
110 28 248 127 301 216 94 156 71 366 -51 470 -98 84 -253 52 -332 -68 l-17
-27 -56 50 c-34 31 -66 50 -81 51 -15 0 -194 1 -398 1 l-373 1 -36 -28 c-52
-40 -98 -88 -134 -140 -17 -25 -35 -45 -40 -45 -20 0 -72 56 -130 140 -85 125
-89 127 -213 109z m1734 -130 c60 -42 89 -159 63 -248 -28 -93 -121 -191 -184
-191 l-25 0 -1 98 c0 72 -5 111 -21 153 l-20 56 22 54 c40 94 103 123 166 78z"/>
</g>
</svg>
